<svg width="20" height="20" viewBox="0 0 20 20" fill="none" xmlns="http://www.w3.org/2000/svg">
<path fill-rule="evenodd" clip-rule="evenodd" d="M7.29279 14.707C7.10532 14.5195 7 14.2652 7 14C7 13.7348 7.10532 13.4805 7.29279 13.293L10.5858 10L7.29279 6.707C7.11063 6.5184 7.00983 6.2658 7.01211 6.0036C7.01439 5.7414 7.11956 5.49059 7.30497 5.30518C7.49038 5.11978 7.74119 5.01461 8.00339 5.01233C8.26558 5.01005 8.51818 5.11085 8.70679 5.293L12.7068 9.293C12.8943 9.48053 12.9996 9.73484 12.9996 10C12.9996 10.2652 12.8943 10.5195 12.7068 10.707L8.70679 14.707C8.51926 14.8945 8.26495 14.9998 7.99979 14.9998C7.73462 14.9998 7.48031 14.8945 7.29279 14.707Z" fill="#A1A1AA"/>
</svg>
