<svg width="39" height="39" viewBox="0 0 39 39" fill="none" xmlns="http://www.w3.org/2000/svg">
<path fill-rule="evenodd" clip-rule="evenodd" d="M9.7499 3.89999C10.2671 3.89999 10.7631 4.10544 11.1288 4.47114C11.4945 4.83683 11.6999 5.33282 11.6999 5.84999V7.79999H13.6499C14.1671 7.79999 14.6631 8.00544 15.0288 8.37114C15.3945 8.73683 15.5999 9.23282 15.5999 9.74999C15.5999 10.2672 15.3945 10.7632 15.0288 11.1289C14.6631 11.4945 14.1671 11.7 13.6499 11.7H11.6999V13.65C11.6999 14.1672 11.4945 14.6632 11.1288 15.0289C10.7631 15.3945 10.2671 15.6 9.7499 15.6C9.23273 15.6 8.73674 15.3945 8.37104 15.0289C8.00535 14.6632 7.7999 14.1672 7.7999 13.65V11.7H5.8499C5.33273 11.7 4.83674 11.4945 4.47104 11.1289C4.10535 10.7632 3.8999 10.2672 3.8999 9.74999C3.8999 9.23282 4.10535 8.73683 4.47104 8.37114C4.83674 8.00544 5.33273 7.79999 5.8499 7.79999H7.7999V5.84999C7.7999 5.33282 8.00535 4.83683 8.37104 4.47114C8.73674 4.10544 9.23273 3.89999 9.7499 3.89999ZM9.7499 23.4C10.2671 23.4 10.7631 23.6054 11.1288 23.9711C11.4945 24.3368 11.6999 24.8328 11.6999 25.35V27.3H13.6499C14.1671 27.3 14.6631 27.5054 15.0288 27.8711C15.3945 28.2368 15.5999 28.7328 15.5999 29.25C15.5999 29.7672 15.3945 30.2632 15.0288 30.6289C14.6631 30.9945 14.1671 31.2 13.6499 31.2H11.6999V33.15C11.6999 33.6672 11.4945 34.1632 11.1288 34.5289C10.7631 34.8946 10.2671 35.1 9.7499 35.1C9.23273 35.1 8.73674 34.8946 8.37104 34.5289C8.00535 34.1632 7.7999 33.6672 7.7999 33.15V31.2H5.8499C5.33273 31.2 4.83674 30.9945 4.47104 30.6289C4.10535 30.2632 3.8999 29.7672 3.8999 29.25C3.8999 28.7328 4.10535 28.2368 4.47104 27.8711C4.83674 27.5054 5.33273 27.3 5.8499 27.3H7.7999V25.35C7.7999 24.8328 8.00535 24.3368 8.37104 23.9711C8.73674 23.6054 9.23273 23.4 9.7499 23.4ZM23.3999 3.89999C23.8302 3.89985 24.2485 4.04208 24.5896 4.3045C24.9307 4.56692 25.1754 4.93479 25.2856 5.35079L27.5846 14.04L34.1249 17.8113C34.4213 17.9824 34.6675 18.2286 34.8386 18.525C35.0097 18.8215 35.0998 19.1577 35.0998 19.5C35.0998 19.8423 35.0097 20.1785 34.8386 20.475C34.6675 20.7714 34.4213 21.0175 34.1249 21.1887L27.5846 24.9619L25.2836 33.6492C25.1732 34.0648 24.9286 34.4323 24.5877 34.6944C24.2469 34.9566 23.8289 35.0987 23.3989 35.0987C22.9689 35.0987 22.551 34.9566 22.2101 34.6944C21.8693 34.4323 21.6246 34.0648 21.5143 33.6492L19.2152 24.96L12.6749 21.1887C12.3785 21.0175 12.1323 20.7714 11.9612 20.475C11.7901 20.1785 11.7 19.8423 11.7 19.5C11.7 19.1577 11.7901 18.8215 11.9612 18.525C12.1323 18.2286 12.3785 17.9824 12.6749 17.8113L19.2152 14.038L21.5162 5.35079C21.6263 4.93511 21.8707 4.56748 22.2114 4.30509C22.552 4.0427 22.9699 3.90029 23.3999 3.89999Z" fill="#FB923C"/>
</svg>
