<svg width="33" height="32" viewBox="0 0 33 32" fill="none" xmlns="http://www.w3.org/2000/svg">
<path d="M1.875 1.375H5.125L5.775 4.625M5.775 4.625H31.125L24.625 17.625H8.375M5.775 4.625L8.375 17.625M8.375 17.625L4.64887 21.3511C3.62512 22.3749 4.34988 24.125 5.79775 24.125H24.625M24.625 24.125C23.763 24.125 22.9364 24.4674 22.3269 25.0769C21.7174 25.6864 21.375 26.513 21.375 27.375C21.375 28.237 21.7174 29.0636 22.3269 29.6731C22.9364 30.2826 23.763 30.625 24.625 30.625C25.487 30.625 26.3136 30.2826 26.9231 29.6731C27.5326 29.0636 27.875 28.237 27.875 27.375C27.875 26.513 27.5326 25.6864 26.9231 25.0769C26.3136 24.4674 25.487 24.125 24.625 24.125ZM11.625 27.375C11.625 28.237 11.2826 29.0636 10.6731 29.6731C10.0636 30.2826 9.23695 30.625 8.375 30.625C7.51305 30.625 6.6864 30.2826 6.0769 29.6731C5.46741 29.0636 5.125 28.237 5.125 27.375C5.125 26.513 5.46741 25.6864 6.0769 25.0769C6.6864 24.4674 7.51305 24.125 8.375 24.125C9.23695 24.125 10.0636 24.4674 10.6731 25.0769C11.2826 25.6864 11.625 26.513 11.625 27.375Z" stroke="#FB923C" stroke-width="2.4375" stroke-linecap="round" stroke-linejoin="round"/>
</svg>
