<svg width="31" height="31" viewBox="0 0 31 31" fill="none" xmlns="http://www.w3.org/2000/svg">
<path fill-rule="evenodd" clip-rule="evenodd" d="M15.5001 27.9C18.7888 27.9 21.9428 26.5936 24.2682 24.2681C26.5937 21.9427 27.9001 18.7887 27.9001 15.5C27.9001 12.2113 26.5937 9.05733 24.2682 6.73188C21.9428 4.40643 18.7888 3.10001 15.5001 3.10001C12.2114 3.10001 9.05742 4.40643 6.73197 6.73188C4.40652 9.05733 3.1001 12.2113 3.1001 15.5C3.1001 18.7887 4.40652 21.9427 6.73197 24.2681C9.05742 26.5936 12.2114 27.9 15.5001 27.9V27.9ZM13.4959 11.3042C13.2036 11.0218 12.8121 10.8656 12.4057 10.8691C11.9993 10.8726 11.6105 11.0357 11.3231 11.323C11.0357 11.6104 10.8727 11.9992 10.8692 12.4056C10.8657 12.812 11.0219 13.2035 11.3042 13.4959L13.3084 15.5L11.3042 17.5042C11.1562 17.6471 11.0381 17.8182 10.9569 18.0073C10.8757 18.1964 10.8329 18.3998 10.8311 18.6056C10.8293 18.8114 10.8685 19.0155 10.9465 19.206C11.0244 19.3965 11.1395 19.5695 11.285 19.7151C11.4306 19.8606 11.6036 19.9757 11.7941 20.0536C11.9846 20.1316 12.1887 20.1708 12.3945 20.169C12.6003 20.1672 12.8037 20.1244 12.9928 20.0432C13.1819 19.962 13.353 19.8439 13.4959 19.6959L15.5001 17.6917L17.5042 19.6959C17.7966 19.9782 18.1881 20.1344 18.5945 20.1309C19.0009 20.1274 19.3897 19.9644 19.6771 19.677C19.9644 19.3896 20.1275 19.0008 20.131 18.5944C20.1345 18.188 19.9783 17.7965 19.6959 17.5042L17.6918 15.5L19.6959 13.4959C19.9783 13.2035 20.1345 12.812 20.131 12.4056C20.1275 11.9992 19.9644 11.6104 19.6771 11.323C19.3897 11.0357 19.0009 10.8726 18.5945 10.8691C18.1881 10.8656 17.7966 11.0218 17.5042 11.3042L15.5001 13.3083L13.4959 11.3042Z" fill="white"/>
</svg>
