<svg width="51" height="50" viewBox="0 0 51 50" fill="none" xmlns="http://www.w3.org/2000/svg">
<path d="M25.5 49.1563C39.0742 49.1563 50.0782 38.1523 50.0782 24.5781C50.0782 11.004 39.0742 0 25.5 0C11.9259 0 0.921875 11.004 0.921875 24.5781C0.921875 38.1523 11.9259 49.1563 25.5 49.1563Z" fill="#FB923C"/>
<path d="M25.5 11.8922C29.6328 11.8922 30.1207 11.9068 31.752 11.9832C33.2594 12.0524 34.0787 12.3036 34.6249 12.5148C35.3458 12.7952 35.8629 13.1302 36.4054 13.6727C36.948 14.2153 37.283 14.7287 37.5633 15.4533C37.7745 15.9995 38.0258 16.8187 38.0949 18.3262C38.1678 19.9575 38.186 20.449 38.186 24.5782C38.186 28.7073 38.1714 29.1989 38.0949 30.8301C38.0258 32.3376 37.7745 33.1568 37.5633 33.703C37.283 34.424 36.948 34.941 36.4054 35.4836C35.8629 36.0261 35.3495 36.3611 34.6249 36.6415C34.0787 36.8527 33.2594 37.1039 31.752 37.1731C30.1207 37.2459 29.6328 37.2641 25.5 37.2641C21.3672 37.2641 20.8793 37.2496 19.2481 37.1731C17.7406 37.1039 16.9213 36.8527 16.3751 36.6415C15.6542 36.3611 15.1371 36.0261 14.5946 35.4836C14.0521 34.941 13.7171 34.4276 13.4367 33.703C13.2255 33.1568 12.9743 32.3376 12.9051 30.8301C12.8322 29.1989 12.814 28.7073 12.814 24.5782C12.814 20.449 12.8286 19.9575 12.9051 18.3262C12.9743 16.8187 13.2255 15.9995 13.4367 15.4533C13.7171 14.7323 14.0521 14.2153 14.5946 13.6727C15.1371 13.1302 15.6505 12.7952 16.3751 12.5148C16.9213 12.3036 17.7406 12.0524 19.2481 11.9832C20.8793 11.9104 21.3709 11.8922 25.5 11.8922ZM25.5 9.10303C21.2981 9.10303 20.7701 9.12123 19.1206 9.1977C17.4748 9.27416 16.3497 9.53269 15.3629 9.91866C14.347 10.3155 13.484 10.8435 12.6211 11.7028C11.7617 12.5622 11.2301 13.4251 10.8369 14.4447C10.4545 15.4278 10.1924 16.5529 10.1159 18.2024C10.0394 19.8519 10.0212 20.3798 10.0212 24.5818C10.0212 28.7838 10.0394 29.3117 10.1159 30.9612C10.1924 32.607 10.4509 33.7322 10.8369 34.7189C11.2338 35.7348 11.7617 36.5978 12.6211 37.4608C13.4804 38.3201 14.3433 38.8517 15.3629 39.2449C16.346 39.6273 17.4711 39.8894 19.1206 39.9659C20.7701 40.0424 21.2981 40.0606 25.5 40.0606C29.702 40.0606 30.2299 40.0424 31.8794 39.9659C33.5252 39.8894 34.6504 39.6309 35.6371 39.2449C36.653 38.8481 37.516 38.3201 38.379 37.4608C39.2383 36.6014 39.7699 35.7385 40.1631 34.7189C40.5455 33.7358 40.8077 32.6107 40.8841 30.9612C40.9606 29.3117 40.9788 28.7838 40.9788 24.5818C40.9788 20.3798 40.9606 19.8519 40.8841 18.2024C40.8077 16.5566 40.5491 15.4314 40.1631 14.4447C39.7663 13.4288 39.2383 12.5658 38.379 11.7028C37.5196 10.8435 36.6567 10.3119 35.6371 9.91866C34.654 9.53633 33.5289 9.27416 31.8794 9.1977C30.2299 9.12123 29.702 9.10303 25.5 9.10303Z" fill="#18181B"/>
<path d="M25.4999 16.6328C21.1123 16.6328 17.5548 20.1903 17.5548 24.5779C17.5548 28.9656 21.1123 32.523 25.4999 32.523C29.8876 32.523 33.445 28.9656 33.445 24.5779C33.445 20.1903 29.8876 16.6328 25.4999 16.6328ZM25.4999 29.7375C22.6525 29.7375 20.3403 27.429 20.3403 24.5779C20.3403 21.7269 22.6489 19.4183 25.4999 19.4183C28.351 19.4183 30.6595 21.7269 30.6595 24.5779C30.6595 27.429 28.351 29.7375 25.4999 29.7375Z" fill="#18181B"/>
<path d="M33.7619 18.173C34.7875 18.173 35.6189 17.3416 35.6189 16.316C35.6189 15.2904 34.7875 14.459 33.7619 14.459C32.7363 14.459 31.9049 15.2904 31.9049 16.316C31.9049 17.3416 32.7363 18.173 33.7619 18.173Z" fill="#18181B"/>
</svg>
