<svg width="50" height="50" viewBox="0 0 50 50" fill="none" xmlns="http://www.w3.org/2000/svg">
<path d="M25.4218 49.1563C38.9959 49.1563 50 38.1523 50 24.5781C50 11.004 38.9959 0 25.4218 0C11.8476 0 0.843628 11.004 0.843628 24.5781C0.843628 38.1523 11.8476 49.1563 25.4218 49.1563Z" fill="#FB923C"/>
<path d="M20.4552 38.7349C32.4602 38.7349 39.0253 28.7908 39.0253 20.1647C39.0253 19.8807 39.018 19.6004 39.0071 19.32C40.2815 18.3988 41.3885 17.2481 42.2624 15.9409C41.0935 16.4616 39.8337 16.8112 38.5156 16.9678C39.8628 16.1594 40.8969 14.8813 41.3848 13.3593C40.125 14.1058 38.7268 14.652 37.2411 14.9432C36.0505 13.6761 34.3537 12.8823 32.4784 12.8823C28.8736 12.8823 25.9498 15.8062 25.9498 19.4074C25.9498 19.9208 26.008 20.416 26.1209 20.8966C20.6955 20.6235 15.8855 18.0274 12.6703 14.0766C12.1095 15.0416 11.7855 16.1631 11.7855 17.3574C11.7855 19.6222 12.9361 21.6212 14.6911 22.7901C13.6206 22.7573 12.6157 22.4623 11.7345 21.9744C11.7345 21.9999 11.7345 22.029 11.7345 22.0582C11.7345 25.2187 13.9848 27.8586 16.9705 28.4558C16.4207 28.6051 15.8454 28.6852 15.2519 28.6852C14.8331 28.6852 14.4217 28.6451 14.0248 28.5686C14.855 31.1612 17.2655 33.0473 20.1202 33.102C17.8845 34.8534 15.0735 35.8948 12.0149 35.8948C11.4869 35.8948 10.9698 35.8656 10.4564 35.8037C13.3439 37.6535 16.7739 38.7349 20.4588 38.7349" fill="#18181B"/>
</svg>
