<svg width="29" height="29" viewBox="0 0 29 29" fill="none" xmlns="http://www.w3.org/2000/svg">
<path fill-rule="evenodd" clip-rule="evenodd" d="M10.5785 21.3327C10.3066 21.0607 10.1538 20.6918 10.1538 20.3072C10.1538 19.9226 10.3066 19.5537 10.5785 19.2817L15.355 14.5052L10.5785 9.72869C10.3143 9.45512 10.1681 9.08872 10.1714 8.7084C10.1747 8.32809 10.3272 7.96428 10.5962 7.69535C10.8651 7.42642 11.2289 7.27387 11.6092 7.27056C11.9895 7.26726 12.3559 7.41346 12.6295 7.67768L18.4315 13.4797C18.7034 13.7517 18.8562 14.1206 18.8562 14.5052C18.8562 14.8898 18.7034 15.2587 18.4315 15.5307L12.6295 21.3327C12.3575 21.6046 11.9886 21.7574 11.604 21.7574C11.2194 21.7574 10.8505 21.6046 10.5785 21.3327Z" fill="#A1A1AA"/>
</svg>
