<svg width="29" height="29" viewBox="0 0 29 29" fill="none" xmlns="http://www.w3.org/2000/svg">
<path fill-rule="evenodd" clip-rule="evenodd" d="M7.67708 10.5785C7.94909 10.3066 8.31796 10.1538 8.70258 10.1538C9.0872 10.1538 9.45608 10.3066 9.72808 10.5785L14.5046 15.355L19.2811 10.5785C19.5546 10.3143 19.921 10.1681 20.3014 10.1714C20.6817 10.1747 21.0455 10.3272 21.3144 10.5962C21.5834 10.8651 21.7359 11.2289 21.7392 11.6092C21.7425 11.9895 21.5963 12.3559 21.3321 12.6295L15.5301 18.4315C15.2581 18.7034 14.8892 18.8562 14.5046 18.8562C14.12 18.8562 13.7511 18.7034 13.4791 18.4315L7.67708 12.6295C7.40515 12.3575 7.25239 11.9886 7.25239 11.604C7.25239 11.2194 7.40515 10.8505 7.67708 10.5785Z" fill="#A1A1AA"/>
</svg>
