<svg width="39" height="39" viewBox="0 0 39 39" fill="none" xmlns="http://www.w3.org/2000/svg">
<path d="M19.5 13C16.8074 13 14.625 14.4544 14.625 16.25C14.625 18.0456 16.8074 19.5 19.5 19.5C22.1926 19.5 24.375 20.9544 24.375 22.75C24.375 24.5456 22.1926 26 19.5 26M19.5 13V26M19.5 13C21.3038 13 22.88 13.6533 23.7234 14.625M19.5 13V11.375M19.5 26V27.625M19.5 26C17.6962 26 16.12 25.3467 15.2766 24.375M34.125 19.5C34.125 21.4206 33.7467 23.3224 33.0117 25.0967C32.2768 26.8711 31.1995 28.4834 29.8414 29.8414C28.4834 31.1995 26.8711 32.2768 25.0967 33.0117C23.3224 33.7467 21.4206 34.125 19.5 34.125C17.5794 34.125 15.6776 33.7467 13.9033 33.0117C12.1289 32.2768 10.5166 31.1995 9.15856 29.8414C7.80051 28.4834 6.72324 26.8711 5.98826 25.0967C5.25329 23.3224 4.875 21.4206 4.875 19.5C4.875 15.6212 6.41584 11.9013 9.15856 9.15856C11.9013 6.41584 15.6212 4.875 19.5 4.875C23.3788 4.875 27.0987 6.41584 29.8414 9.15856C32.5842 11.9013 34.125 15.6212 34.125 19.5Z" stroke="#FB923C" stroke-width="3.25" stroke-linecap="round" stroke-linejoin="round"/>
</svg>
