<svg width="39" height="39" viewBox="0 0 39 39" fill="none" xmlns="http://www.w3.org/2000/svg">
<path d="M28.6926 27.0681L21.7978 33.963C21.4962 34.2648 21.1382 34.5043 20.744 34.6676C20.3499 34.831 19.9275 34.9151 19.5008 34.9151C19.0742 34.9151 18.6517 34.831 18.2576 34.6676C17.8635 34.5043 17.5054 34.2648 17.2039 33.963L10.3074 27.0681C8.48937 25.25 7.2513 22.9336 6.74975 20.4119C6.24819 17.8902 6.50568 15.2763 7.48964 12.9009C8.47359 10.5255 10.1398 8.49525 12.2777 7.06682C14.4155 5.6384 16.9289 4.87598 19.5 4.87598C22.0711 4.87598 24.5845 5.6384 26.7223 7.06682C28.8602 8.49525 30.5264 10.5255 31.5104 12.9009C32.4943 15.2763 32.7518 17.8902 32.2503 20.4119C31.7487 22.9336 30.5106 25.25 28.6926 27.0681V27.0681Z" stroke="#FB923C" stroke-width="3.25" stroke-linecap="round" stroke-linejoin="round"/>
<path d="M22.9471 21.3221C23.8614 20.4079 24.375 19.1679 24.375 17.875C24.375 16.5821 23.8614 15.3421 22.9471 14.4279C22.0329 13.5136 20.7929 13 19.5 13C18.2071 13 16.9671 13.5136 16.0529 14.4279C15.1386 15.3421 14.625 16.5821 14.625 17.875C14.625 19.1679 15.1386 20.4079 16.0529 21.3221C16.9671 22.2364 18.2071 22.75 19.5 22.75C20.7929 22.75 22.0329 22.2364 22.9471 21.3221Z" stroke="#FB923C" stroke-width="3.25" stroke-linecap="round" stroke-linejoin="round"/>
</svg>
