<svg width="39" height="39" viewBox="0 0 39 39" fill="none" xmlns="http://www.w3.org/2000/svg">
<path d="M13.6731 29.9231C14.2826 29.3136 14.625 28.487 14.625 27.625C14.625 26.763 14.2826 25.9364 13.6731 25.3269C13.0636 24.7174 12.237 24.375 11.375 24.375C10.513 24.375 9.6864 24.7174 9.0769 25.3269C8.46741 25.9364 8.125 26.763 8.125 27.625C8.125 28.487 8.46741 29.3136 9.0769 29.9231C9.6864 30.5326 10.513 30.875 11.375 30.875C12.237 30.875 13.0636 30.5326 13.6731 29.9231Z" stroke="#FB923C" stroke-width="1.625"/>
<path d="M29.9231 29.9231C30.5326 29.3136 30.875 28.487 30.875 27.625C30.875 26.763 30.5326 25.9364 29.9231 25.3269C29.3136 24.7174 28.487 24.375 27.625 24.375C26.763 24.375 25.9364 24.7174 25.3269 25.3269C24.7174 25.9364 24.375 26.763 24.375 27.625C24.375 28.487 24.7174 29.3136 25.3269 29.9231C25.9364 30.5326 26.763 30.875 27.625 30.875C28.487 30.875 29.3136 30.5326 29.9231 29.9231Z" stroke="#FB923C" stroke-width="1.625"/>
<path d="M21.125 26V9.75C21.125 9.31902 20.9538 8.9057 20.649 8.60095C20.3443 8.29621 19.931 8.125 19.5 8.125H6.5C6.06902 8.125 5.6557 8.29621 5.35095 8.60095C5.0462 8.9057 4.875 9.31902 4.875 9.75V26C4.875 26.431 5.0462 26.8443 5.35095 27.149C5.6557 27.4538 6.06902 27.625 6.5 27.625H8.125M21.125 26C21.125 26.431 20.9538 26.8443 20.649 27.149C20.3443 27.4538 19.931 27.625 19.5 27.625H14.625M21.125 26V13C21.125 12.569 21.2962 12.1557 21.601 11.851C21.9057 11.5462 22.319 11.375 22.75 11.375H26.9523C27.3832 11.3751 27.7964 11.5464 28.1011 11.8511L33.6489 17.3989C33.9536 17.7036 34.1249 18.1168 34.125 18.5477V26C34.125 26.431 33.9538 26.8443 33.649 27.149C33.3443 27.4538 32.931 27.625 32.5 27.625H30.875M21.125 26C21.125 26.431 21.2962 26.8443 21.601 27.149C21.9057 27.4538 22.319 27.625 22.75 27.625H24.375M8.125 27.625C8.125 28.487 8.46741 29.3136 9.0769 29.9231C9.6864 30.5326 10.513 30.875 11.375 30.875C12.237 30.875 13.0636 30.5326 13.6731 29.9231C14.2826 29.3136 14.625 28.487 14.625 27.625M8.125 27.625C8.125 26.763 8.46741 25.9364 9.0769 25.3269C9.6864 24.7174 10.513 24.375 11.375 24.375C12.237 24.375 13.0636 24.7174 13.6731 25.3269C14.2826 25.9364 14.625 26.763 14.625 27.625M30.875 27.625C30.875 28.487 30.5326 29.3136 29.9231 29.9231C29.3136 30.5326 28.487 30.875 27.625 30.875C26.763 30.875 25.9364 30.5326 25.3269 29.9231C24.7174 29.3136 24.375 28.487 24.375 27.625M30.875 27.625C30.875 26.763 30.5326 25.9364 29.9231 25.3269C29.3136 24.7174 28.487 24.375 27.625 24.375C26.763 24.375 25.9364 24.7174 25.3269 25.3269C24.7174 25.9364 24.375 26.763 24.375 27.625" stroke="#FB923C" stroke-width="3.25" stroke-linecap="round" stroke-linejoin="round"/>
</svg>
