<svg width="20" height="20" viewBox="0 0 20 20" fill="none" xmlns="http://www.w3.org/2000/svg">
<g id="truck">
<g id="Vector">
<path d="M7.01186 15.3452C7.32443 15.0326 7.50002 14.6087 7.50002 14.1667C7.50002 13.7246 7.32443 13.3007 7.01186 12.9882C6.6993 12.6756 6.27538 12.5 5.83335 12.5C5.39133 12.5 4.9674 12.6756 4.65484 12.9882C4.34228 13.3007 4.16669 13.7246 4.16669 14.1667C4.16669 14.6087 4.34228 15.0326 4.65484 15.3452C4.9674 15.6577 5.39133 15.8333 5.83335 15.8333C6.27538 15.8333 6.6993 15.6577 7.01186 15.3452Z" stroke="#3F3F46"/>
<path d="M15.3452 15.3452C15.6578 15.0326 15.8334 14.6087 15.8334 14.1667C15.8334 13.7246 15.6578 13.3007 15.3452 12.9882C15.0326 12.6756 14.6087 12.5 14.1667 12.5C13.7247 12.5 13.3007 12.6756 12.9882 12.9882C12.6756 13.3007 12.5 13.7246 12.5 14.1667C12.5 14.6087 12.6756 15.0326 12.9882 15.3452C13.3007 15.6577 13.7247 15.8333 14.1667 15.8333C14.6087 15.8333 15.0326 15.6577 15.3452 15.3452Z" stroke="#3F3F46"/>
</g>
<path id="Vector_2" d="M10.8333 13.3333V4.99999C10.8333 4.77898 10.7455 4.56701 10.5893 4.41073C10.433 4.25445 10.221 4.16666 10 4.16666H3.33333C3.11232 4.16666 2.90036 4.25445 2.74408 4.41073C2.5878 4.56701 2.5 4.77898 2.5 4.99999V13.3333C2.5 13.5543 2.5878 13.7663 2.74408 13.9226C2.90036 14.0789 3.11232 14.1667 3.33333 14.1667H4.16667M10.8333 13.3333C10.8333 13.5543 10.7455 13.7663 10.5893 13.9226C10.433 14.0789 10.221 14.1667 10 14.1667H7.5M10.8333 13.3333V6.66666C10.8333 6.44564 10.9211 6.23368 11.0774 6.0774C11.2337 5.92112 11.4457 5.83332 11.6667 5.83332H13.8217C14.0427 5.83337 14.2546 5.9212 14.4108 6.07749L17.2558 8.92249C17.4121 9.07873 17.5 9.29066 17.5 9.51166V13.3333C17.5 13.5543 17.4122 13.7663 17.2559 13.9226C17.0996 14.0789 16.8877 14.1667 16.6667 14.1667H15.8333M10.8333 13.3333C10.8333 13.5543 10.9211 13.7663 11.0774 13.9226C11.2337 14.0789 11.4457 14.1667 11.6667 14.1667H12.5M4.16667 14.1667C4.16667 14.6087 4.34226 15.0326 4.65482 15.3452C4.96738 15.6577 5.39131 15.8333 5.83333 15.8333C6.27536 15.8333 6.69928 15.6577 7.01184 15.3452C7.3244 15.0326 7.5 14.6087 7.5 14.1667M4.16667 14.1667C4.16667 13.7246 4.34226 13.3007 4.65482 12.9881C4.96738 12.6756 5.39131 12.5 5.83333 12.5C6.27536 12.5 6.69928 12.6756 7.01184 12.9881C7.3244 13.3007 7.5 13.7246 7.5 14.1667M15.8333 14.1667C15.8333 14.6087 15.6577 15.0326 15.3452 15.3452C15.0326 15.6577 14.6087 15.8333 14.1667 15.8333C13.7246 15.8333 13.3007 15.6577 12.9882 15.3452C12.6756 15.0326 12.5 14.6087 12.5 14.1667M15.8333 14.1667C15.8333 13.7246 15.6577 13.3007 15.3452 12.9881C15.0326 12.6756 14.6087 12.5 14.1667 12.5C13.7246 12.5 13.3007 12.6756 12.9882 12.9881C12.6756 13.3007 12.5 13.7246 12.5 14.1667" stroke="#FED7AA" stroke-width="1.5" stroke-linecap="round" stroke-linejoin="round"/>
</g>
</svg>
